<svg width="177" height="40" viewBox="0 0 177 40" fill="none" xmlns="http://www.w3.org/2000/svg">
<path d="M176.999 22.8812H171.064V21.154H176.447V18.5311H171.064V16.9014H176.772V14.1967H167.893V25.6023H177V22.8812H176.999ZM157.81 14.1967V25.6023H166.478V22.8648H161.03V14.1967H157.81ZM151.81 22.5224C154.851 22.4897 156.38 20.6813 156.38 18.3511C156.38 16.0209 154.868 14.1961 151.81 14.1961H146.281V25.6016H149.501V22.5224H151.81ZM149.501 16.9669H151.81C152.688 16.9669 153.16 17.6511 153.16 18.4008C153.16 19.1505 152.705 19.8019 151.81 19.8019H149.501V16.9669ZM144.46 22.8812H138.524V21.154H143.907V18.5311H138.524V16.9014H144.232V14.1967H135.354V25.6023H144.46V22.8812H144.46ZM130.458 19.8995C130.458 21.7897 129.239 23.1254 127.352 23.1254C125.465 23.1254 124.246 21.8055 124.246 19.8995C124.246 17.9935 125.514 16.6736 127.352 16.6736C129.19 16.6736 130.458 17.9444 130.458 19.8995ZM133.678 19.8995C133.678 16.1033 131.092 13.9198 127.353 13.9198C123.613 13.9198 121.027 16.1518 121.027 19.8995C121.027 23.6472 123.629 25.8792 127.353 25.8792C131.076 25.8792 133.678 23.712 133.678 19.8995ZM115.66 22.5224C118.701 22.4897 120.23 20.6813 120.23 18.3511C120.23 16.0209 118.718 14.1961 115.66 14.1961H110.131V25.6016H113.351V22.5224H115.66ZM113.351 16.9669H115.66C116.538 16.9669 117.01 17.6511 117.01 18.4008C117.01 19.1505 116.555 19.8019 115.66 19.8019H113.351V16.9669ZM102.374 21.2629L96.7964 14.181H95.0562V25.6023H97.2028V17.901L103.187 25.6023H104.521V14.181H102.374V21.2629ZM92.8938 23.4842H86.5029V20.9098H92.6658V18.9056H86.5029V16.2663H92.8938V14.181H84.3726V25.6023H92.8938V23.4842ZM82.7461 23.4842H76.3552V20.9098H82.5181V18.9056H76.3552V16.2663H82.7461V14.181H74.2249V25.6023H82.7461V23.4842ZM68.7122 16.1845C70.0616 16.1845 70.6635 17.0997 70.6635 18.0175C70.6635 18.9352 70.0779 19.8504 68.7122 19.8504H65.4435V16.1845H68.7122ZM73.3793 25.4556L69.9316 21.5612C72.0945 21.1212 72.8101 19.5407 72.8101 17.9684C72.8101 15.9888 71.3953 14.1967 68.7122 14.1804C66.9073 14.1967 65.1018 14.1804 63.2969 14.1804V25.6016H65.4435V21.7891H67.5085L70.8262 25.6016H73.3793V25.455V25.4556ZM61.3783 15.6142C60.2073 14.4573 58.6788 13.8707 57.1503 13.8707C53.1334 13.8707 51.1332 16.836 51.1332 20.0455C51.1332 23.0436 52.8734 25.8622 57.1503 25.8622C59.1506 25.8622 60.5654 25.0962 61.6874 23.8096V19.0032H56.8086V20.9255H59.7198V22.946C58.8252 23.6629 58.0449 23.8581 57.1503 23.8581C54.3208 23.8581 53.2315 21.9194 53.2315 20.0455C53.2315 17.6996 54.7116 15.8421 57.1503 15.8421C58.1423 15.8421 59.2806 16.2493 60.0452 16.9826L61.3789 15.6142H61.3783Z" fill="#12112C"/>
<path d="M39.3302 20C35.3972 16.1017 31.464 12.2034 27.531 8.30515L23.5981 12.2034L31.4642 20C27.5313 23.8983 23.5981 27.7966 19.6651 31.6949C15.7319 27.7966 11.7989 23.8983 7.86595 20L15.7321 12.2034L11.7991 8.30515C7.86595 12.2034 3.93298 16.1017 0 20C6.55503 26.4972 13.1103 32.9943 19.6653 39.4915C26.2206 32.9943 32.7756 26.4972 39.3306 20" fill="#12B2B3"/>
<path d="M15.7316 4.40684L19.6648 8.30513L23.598 4.40684L19.6648 0.508545L15.7316 4.40684Z" fill="#12B2B3"/>
<path fill-rule="evenodd" clip-rule="evenodd" d="M15.7316 20L19.6648 23.8983L23.598 20L19.6648 16.1017L15.7316 20Z" fill="#12B2B3"/>
</svg>
