<svg width="30" height="30" viewBox="0 0 30 30" fill="none" xmlns="http://www.w3.org/2000/svg">
<path d="M25.4934 30C24.435 30 23.4395 29.576 22.6911 28.808C21.9426 28.04 21.5293 27.0186 21.5293 25.9326C21.5293 24.8466 21.9401 23.8252 22.6885 23.0598C23.437 22.2919 24.4325 21.8678 25.4934 21.8678C26.5544 21.8678 27.5473 22.2893 28.2958 23.0572C29.8406 24.6423 29.8406 27.2229 28.2958 28.8106C27.5473 29.5785 26.5544 30 25.496 30H25.4934Z" fill="#F87000"/>
<path d="M3.96414 8.321C2.90569 8.321 1.91025 7.89694 1.15925 7.12896C0.413299 6.36099 0 5.33962 0 4.2536C0 3.16758 0.410779 2.1462 1.15925 1.38082C1.90773 0.610261 2.90569 0.188782 3.96414 0.188782C5.02259 0.188782 6.01803 0.610261 6.76399 1.37823C7.51246 2.1462 7.92576 3.16758 7.92576 4.2536C7.92576 5.33962 7.51246 6.36099 6.76399 7.12896C6.01551 7.89694 5.02259 8.31841 3.96414 8.31841V8.321Z" fill="#F87000"/>
<path d="M25.3145 8.19945C24.2561 8.19945 23.2606 7.77538 22.5121 7.00741C20.9673 5.42234 20.9673 2.84175 22.5121 1.25927C23.2606 0.491295 24.2561 0.0672302 25.317 0.0672302C26.378 0.0672302 27.3709 0.491295 28.1194 1.25927C29.6642 2.84434 29.6642 5.42493 28.1194 7.01259C27.3709 7.77797 26.3755 8.20203 25.3195 8.20203L25.3145 8.19945Z" fill="#F87000"/>
<path d="M4.06741 30C3.00896 30 2.01352 29.5759 1.26252 28.808C0.51405 28.04 0.103271 27.0186 0.103271 25.9326C0.103271 24.8466 0.51657 23.8252 1.26504 23.0572C1.42129 22.8943 1.5977 22.7469 1.82199 22.5918C1.89003 22.5427 1.95304 22.5039 2.01604 22.4651C2.1622 22.3798 2.30837 22.2996 2.44446 22.235C2.51754 22.2013 2.59566 22.1651 2.67631 22.1341C2.81995 22.0798 2.97872 22.0307 3.16017 21.9867C3.19545 21.9764 3.22821 21.9686 3.26097 21.9583C3.28114 21.9531 3.3013 21.9454 3.32146 21.9402L4.2035 21.8781C4.31438 21.8833 4.43535 21.8988 4.56387 21.9143L4.61428 21.9221C4.64452 21.9247 4.68484 21.9298 4.72516 21.9324H4.76044L4.80076 21.9428H4.83605C4.90157 21.9428 4.96457 21.9454 5.02758 21.9454C6.5472 21.9454 8.04919 21.2808 9.14544 20.1224C10.2367 18.9691 10.839 17.4177 10.7961 15.8662V15.8197L10.786 15.7706C10.7785 15.7266 10.776 15.6826 10.7734 15.6387C10.7709 15.587 10.7659 15.5353 10.7583 15.4835L10.7482 15.393C10.7407 15.3155 10.7306 15.2379 10.7256 15.1603L10.7936 14.2527C10.7986 14.2294 10.8062 14.2088 10.8112 14.1881L10.8264 14.1312C10.8667 13.9579 10.9095 13.7873 10.975 13.6192C11.0078 13.5235 11.038 13.4537 11.0733 13.3813C11.1439 13.2236 11.217 13.0788 11.3027 12.9314C11.3405 12.8667 11.3757 12.8021 11.4186 12.74C11.5799 12.4996 11.7235 12.3186 11.8747 12.1634C12.6232 11.3954 13.6186 10.974 14.6796 10.974C15.7406 10.974 16.7335 11.3954 17.4845 12.1634C19.0268 13.7485 19.0268 16.3291 17.482 17.9142C17.3257 18.0745 17.1493 18.2219 16.9225 18.3796C16.857 18.4261 16.794 18.4649 16.731 18.5011C16.5873 18.589 16.4462 18.6666 16.3026 18.7338C16.2244 18.77 16.1488 18.8062 16.0732 18.8347C15.922 18.8916 15.7607 18.9407 15.5919 18.9821L15.4961 19.0079C15.4734 19.0131 15.4533 19.0209 15.4331 19.026L14.5435 19.0907C14.4402 19.0855 14.3293 19.0726 14.2134 19.0571L14.1353 19.0467C14.1101 19.0415 14.0672 19.039 14.0244 19.0364H13.9941L13.9488 19.0234H13.9135C13.848 19.0234 13.785 19.0209 13.7194 19.0209C12.1998 19.0209 10.6978 19.6854 9.60158 20.8412C8.50785 21.9945 7.90807 23.5459 7.95091 25.1V25.1465L7.96099 25.1931C7.96855 25.237 7.97107 25.281 7.97359 25.3249C7.97611 25.3767 7.98115 25.4284 7.98871 25.4801C7.98871 25.5111 7.99627 25.568 8.00383 25.6223C8.01139 25.6844 8.01895 25.7464 8.01895 25.8085V25.8318L7.95595 26.7032C7.95091 26.7213 7.92319 26.8221 7.91563 26.8531C7.87278 27.0419 7.8249 27.2074 7.76946 27.3574C7.73922 27.4401 7.70898 27.5125 7.6737 27.5875C7.60565 27.7426 7.53005 27.89 7.44437 28.04C7.40656 28.1021 7.36372 28.1745 7.31836 28.2443C7.17219 28.4641 7.02603 28.6476 6.86726 28.8105C6.1213 29.5785 5.12586 30 4.06741 30Z" fill="#F87000"/>
<path d="M14.7704 30C13.7119 30 12.714 29.5759 11.9655 28.808C11.217 28.04 10.8062 27.0186 10.8037 25.9326C10.8037 24.8466 11.2145 23.8278 11.963 23.0598C12.1167 22.9021 12.2881 22.7573 12.5249 22.5892C12.5829 22.5478 12.6459 22.5091 12.714 22.4703C12.8601 22.3798 12.9987 22.3048 13.1449 22.2375C13.223 22.2013 13.2986 22.1651 13.3742 22.1367C13.5204 22.0824 13.6817 22.0333 13.8505 21.9945C13.8505 21.9945 13.9891 21.9531 14.0068 21.9479L14.9039 21.8807C15.0098 21.8859 15.1232 21.9014 15.2442 21.9169L15.3097 21.9247C15.3525 21.9298 15.3903 21.9324 15.4281 21.9324C15.4432 21.9324 15.4584 21.9324 15.471 21.9324H15.4987L15.5365 21.9402C15.602 21.9402 15.6675 21.9428 15.7331 21.9428C17.2502 21.9428 18.7496 21.2782 19.8434 20.1224C20.9346 18.9691 21.5369 17.4177 21.494 15.8662L21.489 15.6775L21.4714 15.6568C21.4714 15.6568 21.4714 15.6439 21.4714 15.6361C21.4714 15.5921 21.4663 15.5482 21.4613 15.5016L21.4462 15.3723C21.4386 15.2999 21.4285 15.2301 21.426 15.1577L21.4865 14.2786C21.4915 14.2579 21.5218 14.1493 21.5293 14.1157C21.5797 13.9062 21.6251 13.7511 21.6755 13.614C21.7032 13.5313 21.7385 13.4563 21.7738 13.3787C21.8368 13.2365 21.9124 13.0917 22.0031 12.934L22.0207 12.9055C22.051 12.8512 22.0812 12.7995 22.1165 12.7478C22.2778 12.5047 22.424 12.3237 22.5752 12.166C23.3236 11.398 24.3216 10.974 25.3801 10.974C26.4385 10.974 27.434 11.3954 28.1824 12.1634C29.7273 13.7485 29.7273 16.3291 28.1824 17.9167C28.0337 18.0693 27.8548 18.2167 27.6204 18.3822C27.5751 18.4132 27.5322 18.4391 27.4894 18.4675L27.4188 18.5115C27.2853 18.5916 27.1416 18.6692 27.0005 18.7364C26.9224 18.7726 26.8468 18.8088 26.7686 18.8373C26.63 18.8916 26.4763 18.9355 26.2848 18.9847C26.247 18.995 26.2142 19.0053 26.184 19.0131C26.1613 19.0183 26.1411 19.026 26.121 19.0312L25.2389 19.0933C25.1104 19.0881 24.9718 19.0674 24.8357 19.0493C24.7903 19.0441 24.7551 19.0415 24.7198 19.039C24.7072 19.039 24.6921 19.039 24.6795 19.039L24.6039 19.0312C24.5383 19.0286 24.4728 19.0286 24.4073 19.0286C22.8877 19.0286 21.3907 19.6932 20.2945 20.849C19.2033 22.0022 18.6009 23.5537 18.6463 25.1077V25.1543L18.6564 25.1982C18.6639 25.2448 18.6665 25.2913 18.669 25.3379C18.6715 25.387 18.6765 25.4335 18.6816 25.4775C18.6841 25.5163 18.6892 25.5654 18.6942 25.612C18.7018 25.6818 18.7093 25.749 18.7118 25.8188L18.6463 26.7109C18.6413 26.7316 18.6085 26.8505 18.6085 26.8505C18.5657 27.0393 18.5178 27.2048 18.4623 27.3599C18.4371 27.4323 18.4044 27.5047 18.3716 27.5771L18.3615 27.603C18.296 27.7478 18.2229 27.8926 18.1398 28.0322C18.0994 28.1021 18.0591 28.1693 18.0163 28.2339C17.86 28.4641 17.7139 28.6502 17.5576 28.8105C16.8142 29.5759 15.8187 29.9974 14.7628 29.9974L14.7704 30Z" fill="#F87000"/>
<path d="M4.06998 19.0235C3.01153 19.0235 2.01608 18.602 1.26761 17.834C0.519134 17.066 0.105835 16.0447 0.105835 14.9561C0.105835 13.87 0.516614 12.8512 1.26509 12.0833C1.41881 11.9255 1.59774 11.7782 1.82707 11.6152C1.88756 11.5739 1.9556 11.5325 2.02112 11.4911C2.15721 11.4084 2.29833 11.3308 2.44702 11.261C2.52262 11.2248 2.60075 11.1886 2.68139 11.1602C2.82756 11.1059 2.98885 11.0567 3.15517 11.0179L3.25598 10.9895C3.27362 10.9843 3.29126 10.9766 3.31142 10.974L4.20858 10.9067C4.32451 10.9119 4.45051 10.93 4.58408 10.9481H4.6118C4.65716 10.9559 4.69244 10.9585 4.73025 10.9611C4.74285 10.9611 4.75545 10.9611 4.76805 10.9611L4.80585 10.9688H4.84113C4.90665 10.9714 4.97218 10.974 5.0377 10.974C6.55481 10.974 8.05428 10.312 9.14801 9.1536C10.2392 8.00035 10.8415 6.4489 10.7962 4.89485V4.8509L10.7861 4.80694C10.776 4.75781 10.776 4.70868 10.7735 4.65696C10.7735 4.61559 10.7684 4.57422 10.7634 4.53285L10.7508 4.40873C10.7407 4.33374 10.7332 4.25876 10.7306 4.18377L10.7911 3.33047L10.7962 3.30978V3.29168C10.8012 3.271 10.834 3.15981 10.834 3.15981C10.8844 2.94002 10.9297 2.78229 10.9801 2.64266C11.0079 2.56508 11.0431 2.4901 11.0784 2.40994C11.1439 2.26514 11.2195 2.11516 11.3052 1.96519L11.3178 1.94191C11.3531 1.88244 11.3859 1.82556 11.4237 1.76608C11.5799 1.53336 11.7261 1.34978 11.8748 1.19463C12.6232 0.426659 13.6187 0.00259399 14.6797 0.00259399C15.7406 0.00259399 16.7336 0.424073 17.482 1.19204C19.0269 2.77712 19.0243 5.35771 17.482 6.94278C17.3283 7.10051 17.1469 7.25307 16.9251 7.40821C16.8646 7.45217 16.8117 7.4832 16.7588 7.51682L16.7285 7.53492C16.5823 7.62283 16.4387 7.70041 16.3051 7.76505C16.2245 7.80384 16.1514 7.83745 16.0733 7.86589C15.9246 7.92278 15.7658 7.96932 15.5894 8.01328C15.5516 8.02363 15.5189 8.03397 15.4836 8.04173C15.4634 8.0469 15.4433 8.05465 15.4206 8.05983L14.5411 8.12188C14.4302 8.11671 14.3117 8.1012 14.1857 8.08568L14.1328 8.07793C14.0925 8.07275 14.0547 8.07017 14.0194 8.06758C14.0043 8.06758 13.9891 8.06758 13.9765 8.065H13.9463L13.9085 8.05724C13.843 8.05724 13.7775 8.05207 13.7119 8.05207C12.1948 8.05207 10.6954 8.71661 9.60163 9.87245C8.51042 11.0257 7.90811 12.5797 7.95095 14.1312V14.1777L7.96103 14.2217C7.97111 14.2682 7.97111 14.3148 7.97615 14.3613C7.97867 14.4079 7.98371 14.457 7.98875 14.5035C7.99127 14.5423 7.99883 14.5889 8.00387 14.638C8.01144 14.7052 8.019 14.7725 8.02152 14.8397L7.95851 15.7266C7.95347 15.7499 7.94591 15.7732 7.93835 15.7964L7.91567 15.8766C7.87283 16.0757 7.82495 16.2412 7.77202 16.386C7.7443 16.4636 7.7065 16.5411 7.67122 16.6239C7.6057 16.7687 7.53261 16.9135 7.44693 17.0609C7.40661 17.1307 7.36881 17.1979 7.32596 17.26C7.16216 17.503 7.02355 17.6789 6.86982 17.834C6.12135 18.602 5.12842 19.0235 4.06998 19.0235Z" fill="#F87000"/>
</svg>
