<svg width="40" height="40" viewBox="0 0 40 40" fill="none" xmlns="http://www.w3.org/2000/svg">
<mask id="mask0_6_2419" style="mask-type:alpha" maskUnits="userSpaceOnUse" x="0" y="0" width="40" height="40">
<rect width="40" height="40" fill="#D9D9D9"/>
</mask>
<g mask="url(#mask0_6_2419)">
<path d="M20.0003 21.6666C18.3614 21.6666 16.9795 21.1041 15.8545 19.9791C14.7295 18.8541 14.167 17.4722 14.167 15.8333C14.167 14.1944 14.7295 12.8125 15.8545 11.6875C16.9795 10.5625 18.3614 9.99998 20.0003 9.99998C21.6392 9.99998 23.0212 10.5625 24.1462 11.6875C25.2712 12.8125 25.8337 14.1944 25.8337 15.8333C25.8337 17.4722 25.2712 18.8541 24.1462 19.9791C23.0212 21.1041 21.6392 21.6666 20.0003 21.6666ZM20.0003 18.3333C20.7225 18.3333 21.3198 18.0972 21.792 17.625C22.2642 17.1528 22.5003 16.5555 22.5003 15.8333C22.5003 15.1111 22.2642 14.5139 21.792 14.0416C21.3198 13.5694 20.7225 13.3333 20.0003 13.3333C19.2781 13.3333 18.6809 13.5694 18.2087 14.0416C17.7364 14.5139 17.5003 15.1111 17.5003 15.8333C17.5003 16.5555 17.7364 17.1528 18.2087 17.625C18.6809 18.0972 19.2781 18.3333 20.0003 18.3333ZM20.0003 36.6666C16.1392 35.6944 12.9517 33.4791 10.4378 30.0208C7.92394 26.5625 6.66699 22.7222 6.66699 18.5V8.33331L20.0003 3.33331L33.3337 8.33331V18.5C33.3337 22.7222 32.0767 26.5625 29.5628 30.0208C27.0489 33.4791 23.8614 35.6944 20.0003 36.6666ZM20.0003 6.87498L10.0003 10.625V18.5C10.0003 20 10.2087 21.4583 10.6253 22.875C11.042 24.2916 11.6114 25.625 12.3337 26.875C13.5003 26.2916 14.7225 25.8333 16.0003 25.5C17.2781 25.1666 18.6114 25 20.0003 25C21.3892 25 22.7225 25.1666 24.0003 25.5C25.2781 25.8333 26.5003 26.2916 27.667 26.875C28.3892 25.625 28.9587 24.2916 29.3753 22.875C29.792 21.4583 30.0003 20 30.0003 18.5V10.625L20.0003 6.87498ZM20.0003 28.3333C19.0003 28.3333 18.0281 28.4444 17.0837 28.6666C16.1392 28.8889 15.2364 29.1944 14.3753 29.5833C15.1809 30.4166 16.0559 31.1389 17.0003 31.75C17.9448 32.3611 18.9448 32.8333 20.0003 33.1666C21.0559 32.8333 22.0559 32.3611 23.0003 31.75C23.9448 31.1389 24.8198 30.4166 25.6253 29.5833C24.7642 29.1944 23.8614 28.8889 22.917 28.6666C21.9725 28.4444 21.0003 28.3333 20.0003 28.3333Z" fill="#12B2B3"/>
</g>
</svg>
